<svg width="1440" height="1024" viewBox="0 0 1440 1024" fill="none" xmlns="http://www.w3.org/2000/svg">
  <g opacity="0.5">
    <line x1="0" y1="0" x2="1440" y2="1024" stroke="white" stroke-width="1"/>
    <line x1="144" y1="0" x2="1584" y2="1024" stroke="white" stroke-width="1"/>
    <line x1="288" y1="0" x2="1728" y2="1024" stroke="white" stroke-width="1"/>
    <line x1="432" y1="0" x2="1872" y2="1024" stroke="white" stroke-width="1"/>
    <line x1="576" y1="0" x2="2016" y2="1024" stroke="white" stroke-width="1"/>
    <line x1="720" y1="0" x2="2160" y2="1024" stroke="white" stroke-width="1"/>
    <line x1="864" y1="0" x2="2304" y2="1024" stroke="white" stroke-width="1"/>
    <line x1="1008" y1="0" x2="2448" y2="1024" stroke="white" stroke-width="1"/>
    <line x1="1152" y1="0" x2="2592" y2="1024" stroke="white" stroke-width="1"/>
    <line x1="1296" y1="0" x2="2736" y2="1024" stroke="white" stroke-width="1"/>
    
    <line x1="1440" y1="0" x2="0" y2="1024" stroke="white" stroke-width="1"/>
    <line x1="1296" y1="0" x2="-144" y2="1024" stroke="white" stroke-width="1"/>
    <line x1="1152" y1="0" x2="-288" y2="1024" stroke="white" stroke-width="1"/>
    <line x1="1008" y1="0" x2="-432" y2="1024" stroke="white" stroke-width="1"/>
    <line x1="864" y1="0" x2="-576" y2="1024" stroke="white" stroke-width="1"/>
    <line x1="720" y1="0" x2="-720" y2="1024" stroke="white" stroke-width="1"/>
    <line x1="576" y1="0" x2="-864" y2="1024" stroke="white" stroke-width="1"/>
    <line x1="432" y1="0" x2="-1008" y2="1024" stroke="white" stroke-width="1"/>
    <line x1="288" y1="0" x2="-1152" y2="1024" stroke="white" stroke-width="1"/>
    <line x1="144" y1="0" x2="-1296" y2="1024" stroke="white" stroke-width="1"/>
  </g>
</svg>
<svg width="1440" height="600" viewBox="0 0 1440 600" fill="none" xmlns="http://www.w3.org/2000/svg">
  <g opacity="0.5">
    <rect x="0" y="0" width="1440" height="600" fill="none"/>
    <path d="M0,0 L1440,600" stroke="white" stroke-width="1"/>
    <path d="M0,120 L1440,720" stroke="white" stroke-width="1"/>
    <path d="M0,240 L1440,840" stroke="white" stroke-width="1"/>
    <path d="M0,360 L1440,960" stroke="white" stroke-width="1"/>
    <path d="M0,480 L1440,1080" stroke="white" stroke-width="1"/>
    
    <path d="M1440,0 L0,600" stroke="white" stroke-width="1"/>
    <path d="M1440,120 L0,720" stroke="white" stroke-width="1"/>
    <path d="M1440,240 L0,840" stroke="white" stroke-width="1"/>
    <path d="M1440,360 L0,960" stroke="white" stroke-width="1"/>
    <path d="M1440,480 L0,1080" stroke="white" stroke-width="1"/>
    
    <circle cx="720" cy="300" r="200" stroke="white" stroke-width="1" fill="none"/>
    <circle cx="720" cy="300" r="150" stroke="white" stroke-width="1" fill="none"/>
    <circle cx="720" cy="300" r="100" stroke="white" stroke-width="1" fill="none"/>
    <circle cx="720" cy="300" r="50" stroke="white" stroke-width="1" fill="none"/>
  </g>
</svg>