<svg width="96" height="96" viewBox="0 0 96 96" fill="none" xmlns="http://www.w3.org/2000/svg">
  <defs>
    <linearGradient id="g" x1="0" y1="0" x2="1" y2="1">
      <stop offset="0" stop-color="#67E8F9"/>
      <stop offset="1" stop-color="#60A5FA"/>
    </linearGradient>
  </defs>
  <rect x="6" y="8" width="84" height="80" rx="20" fill="url(#g)"/>
  <path d="M48 8h30c6.6 0 12 5.4 12 12v56c0 6.6-5.4 12-12 12H48V8z" fill="#3B82F6" fill-opacity="0.35"/>
  <path d="M12 34c0-6.6 5.4-12 12-12h48c6.6 0 12 5.4 12 12" stroke="#0F172A" stroke-opacity="0.25" stroke-width="3"/>
  <circle cx="34" cy="48" r="4" fill="#0F172A" fill-opacity="0.7"/>
  <circle cx="62" cy="48" r="4" fill="#0F172A" fill-opacity="0.7"/>
  <path d="M26 62c6 4 14 6 22 6s16-2 22-6" stroke="#0F172A" stroke-opacity="0.6" stroke-width="4" stroke-linecap="round"/>
</svg>
