<svg width="96" height="96" viewBox="0 0 96 96" fill="none" xmlns="http://www.w3.org/2000/svg">
  <rect x="8" y="8" width="80" height="80" rx="18" fill="#111827"/>
  <path d="M48 28c-10 0-18 8-18 18 0 8 5 14 12 16 1 0 2-1 2-2v-4c-4 1-6-2-6-2-2-4-4-4-4-4-3-2 0-2 0-2 3 0 5 3 5 3 3 5 8 4 10 3 0-2 1-4 2-5-7-1-14-3-14-14 0-3 1-6 3-8 0-1-1-4 1-8 0 0 3-1 9 3 3-1 6-1 9 0 6-4 9-3 9-3 2 4 1 7 1 8 2 2 3 5 3 8 0 11-7 13-14 14 1 1 2 3 2 6v9c0 1 1 2 2 2 7-2 12-8 12-16 0-10-8-18-18-18z" fill="#F8FAFC" fill-opacity="0.9"/>
</svg>
